<svg width="39" height="33" viewBox="0 0 39 33" fill="none" xmlns="http://www.w3.org/2000/svg">
<path d="M19.0889 0C29.6318 0 38.1779 7.23007 38.1779 16.1494C38.1779 25.0688 29.6318 32.2988 19.0889 32.2988C8.54609 32.2988 0 25.0688 0 16.1494C0 7.23007 8.54609 0 19.0889 0ZM19.0889 30.542C28.4337 30.542 36.1012 24.0552 36.1012 16.1494C36.1012 8.24363 28.4337 1.75684 19.0889 1.75684C9.74414 1.75684 2.07662 8.24363 2.07662 16.1494C2.07662 24.0552 9.74414 30.542 19.0889 30.542Z" fill="white"/>
<path d="M18.6894 6.89258L29.6315 16.1497L18.6894 25.4067L17.2517 24.1229L26.5964 16.1497L17.2517 8.17642L18.6894 6.89258Z" fill="white"/>
<path d="M28.1141 17.0947L8.94531 17.0947V15.2031L28.1141 15.2031V17.0947Z" fill="white"/>
</svg>
