<svg width="39" height="33" viewBox="0 0 39 33" fill="none" xmlns="http://www.w3.org/2000/svg">
<path d="M19.0889 32.2988C8.54609 32.2988 0 25.0688 0 16.1494C0 7.23007 8.54609 0 19.0889 0C29.6318 0 38.1779 7.23007 38.1779 16.1494C38.1779 25.0688 29.6318 32.2988 19.0889 32.2988ZM19.0889 1.75684C9.74414 1.75684 2.07662 8.24363 2.07662 16.1494C2.07662 24.0552 9.74414 30.542 19.0889 30.542C28.4337 30.542 36.1012 24.0552 36.1012 16.1494C36.1012 8.24363 28.4337 1.75684 19.0889 1.75684Z" fill="white"/>
<path d="M19.4885 25.4062L8.54633 16.1492L19.4885 6.89209L20.9262 8.17593L11.5814 16.1492L20.9262 24.1224L19.4885 25.4062Z" fill="white"/>
<path d="M10.0637 15.2041L29.2325 15.2041V17.0952H10.0637V15.2041Z" fill="white"/>
</svg>
